<mxfile host="app.diagrams.net" agent="Mozilla/5.0 (Windows NT 10.0; Win64; x64) AppleWebKit/537.36 (KHTML, like Gecko) Chrome/131.0.0.0 Safari/537.36" version="24.8.6">
  <diagram name="Side-1" id="K04hvhNK9lm9p3IosTkv">
    <mxGraphModel dx="2261" dy="780" grid="1" gridSize="5" guides="1" tooltips="1" connect="1" arrows="1" fold="1" page="1" pageScale="1" pageWidth="827" pageHeight="1169" math="0" shadow="0">
      <root>
        <mxCell id="0" />
        <mxCell id="1" parent="0" />
        <mxCell id="lawl9e4fDgucuo8IafyU-3" style="edgeStyle=orthogonalEdgeStyle;rounded=0;orthogonalLoop=1;jettySize=auto;html=1;entryX=0.5;entryY=0;entryDx=0;entryDy=0;" parent="1" source="lawl9e4fDgucuo8IafyU-1" target="lawl9e4fDgucuo8IafyU-19" edge="1">
          <mxGeometry relative="1" as="geometry">
            <mxPoint x="220" y="240" as="targetPoint" />
          </mxGeometry>
        </mxCell>
        <mxCell id="lawl9e4fDgucuo8IafyU-1" value="Start" style="ellipse;whiteSpace=wrap;html=1;" parent="1" vertex="1">
          <mxGeometry x="180" y="160" width="80" height="50" as="geometry" />
        </mxCell>
        <mxCell id="lawl9e4fDgucuo8IafyU-15" value="" style="endArrow=none;html=1;rounded=0;" parent="1" edge="1">
          <mxGeometry width="50" height="50" relative="1" as="geometry">
            <mxPoint x="245" y="365" as="sourcePoint" />
            <mxPoint x="265" y="345" as="targetPoint" />
            <Array as="points">
              <mxPoint x="255" y="365" />
              <mxPoint x="255" y="345" />
            </Array>
          </mxGeometry>
        </mxCell>
        <mxCell id="lawl9e4fDgucuo8IafyU-16" value="" style="endArrow=classic;html=1;rounded=0;" parent="1" edge="1">
          <mxGeometry width="50" height="50" relative="1" as="geometry">
            <mxPoint x="255" y="360" as="sourcePoint" />
            <mxPoint x="255" y="350" as="targetPoint" />
          </mxGeometry>
        </mxCell>
        <mxCell id="lawl9e4fDgucuo8IafyU-21" style="edgeStyle=orthogonalEdgeStyle;rounded=0;orthogonalLoop=1;jettySize=auto;html=1;" parent="1" source="lawl9e4fDgucuo8IafyU-19" target="lawl9e4fDgucuo8IafyU-20" edge="1">
          <mxGeometry relative="1" as="geometry" />
        </mxCell>
        <mxCell id="lawl9e4fDgucuo8IafyU-19" value="Rising edge on i_CLK detected?" style="ellipse;whiteSpace=wrap;html=1;" parent="1" vertex="1">
          <mxGeometry x="152.5" y="250" width="135" height="85" as="geometry" />
        </mxCell>
        <mxCell id="lawl9e4fDgucuo8IafyU-33" style="edgeStyle=orthogonalEdgeStyle;rounded=0;orthogonalLoop=1;jettySize=auto;html=1;" parent="1" source="lawl9e4fDgucuo8IafyU-20" target="lawl9e4fDgucuo8IafyU-32" edge="1">
          <mxGeometry relative="1" as="geometry" />
        </mxCell>
        <mxCell id="lawl9e4fDgucuo8IafyU-20" value="w_RUN = RUN?" style="ellipse;whiteSpace=wrap;html=1;" parent="1" vertex="1">
          <mxGeometry x="160" y="375" width="120" height="80" as="geometry" />
        </mxCell>
        <mxCell id="lawl9e4fDgucuo8IafyU-22" value="Detected" style="text;html=1;align=center;verticalAlign=middle;whiteSpace=wrap;rounded=0;" parent="1" vertex="1">
          <mxGeometry x="265" y="340" width="55" height="30" as="geometry" />
        </mxCell>
        <mxCell id="lawl9e4fDgucuo8IafyU-23" value="" style="curved=1;endArrow=classic;html=1;rounded=0;exitX=0;exitY=1;exitDx=0;exitDy=0;entryX=0;entryY=0.5;entryDx=0;entryDy=0;" parent="1" source="lawl9e4fDgucuo8IafyU-19" target="lawl9e4fDgucuo8IafyU-19" edge="1">
          <mxGeometry width="50" height="50" relative="1" as="geometry">
            <mxPoint x="235" y="390" as="sourcePoint" />
            <mxPoint x="285" y="340" as="targetPoint" />
            <Array as="points">
              <mxPoint x="125" y="350" />
              <mxPoint x="105" y="290" />
            </Array>
          </mxGeometry>
        </mxCell>
        <mxCell id="lawl9e4fDgucuo8IafyU-24" value="Not&lt;br&gt;detected" style="text;html=1;align=center;verticalAlign=middle;whiteSpace=wrap;rounded=0;" parent="1" vertex="1">
          <mxGeometry x="70" y="325" width="55" height="30" as="geometry" />
        </mxCell>
        <mxCell id="lawl9e4fDgucuo8IafyU-40" style="edgeStyle=orthogonalEdgeStyle;rounded=0;orthogonalLoop=1;jettySize=auto;html=1;" parent="1" source="lawl9e4fDgucuo8IafyU-25" edge="1">
          <mxGeometry relative="1" as="geometry">
            <mxPoint x="220" y="605" as="targetPoint" />
          </mxGeometry>
        </mxCell>
        <mxCell id="lawl9e4fDgucuo8IafyU-25" value="o_DATA &amp;lt;= r_A_REG" style="rounded=1;whiteSpace=wrap;html=1;" parent="1" vertex="1">
          <mxGeometry x="150" y="505" width="140" height="60" as="geometry" />
        </mxCell>
        <mxCell id="lawl9e4fDgucuo8IafyU-31" value="No" style="text;html=1;align=center;verticalAlign=middle;whiteSpace=wrap;rounded=0;" parent="1" vertex="1">
          <mxGeometry x="100" y="410" width="30" height="30" as="geometry" />
        </mxCell>
        <mxCell id="lawl9e4fDgucuo8IafyU-32" value="w_CMPLT &amp;lt;= &#39;0&#39;&lt;br&gt;v_Count := 0&lt;br&gt;o_SET &amp;lt;= &#39;0&#39;&lt;br&gt;state &amp;lt;= S1" style="rounded=1;whiteSpace=wrap;html=1;" parent="1" vertex="1">
          <mxGeometry x="-60" y="380" width="120" height="70" as="geometry" />
        </mxCell>
        <mxCell id="lawl9e4fDgucuo8IafyU-36" value="" style="curved=1;endArrow=classic;html=1;rounded=0;entryX=0;entryY=0;entryDx=0;entryDy=0;exitX=0.5;exitY=0;exitDx=0;exitDy=0;" parent="1" source="lawl9e4fDgucuo8IafyU-32" target="lawl9e4fDgucuo8IafyU-19" edge="1">
          <mxGeometry width="50" height="50" relative="1" as="geometry">
            <mxPoint x="150" y="355" as="sourcePoint" />
            <mxPoint x="200" y="305" as="targetPoint" />
            <Array as="points">
              <mxPoint x="-5" y="285" />
              <mxPoint x="110" y="225" />
            </Array>
          </mxGeometry>
        </mxCell>
        <mxCell id="lawl9e4fDgucuo8IafyU-43" style="edgeStyle=orthogonalEdgeStyle;rounded=0;orthogonalLoop=1;jettySize=auto;html=1;" parent="1" target="lawl9e4fDgucuo8IafyU-25" edge="1">
          <mxGeometry relative="1" as="geometry">
            <mxPoint x="220" y="455" as="sourcePoint" />
          </mxGeometry>
        </mxCell>
        <mxCell id="lawl9e4fDgucuo8IafyU-44" value="Yes" style="text;html=1;align=center;verticalAlign=middle;whiteSpace=wrap;rounded=0;" parent="1" vertex="1">
          <mxGeometry x="230" y="470" width="30" height="30" as="geometry" />
        </mxCell>
        <mxCell id="lawl9e4fDgucuo8IafyU-52" value="State S1" style="text;html=1;align=center;verticalAlign=middle;resizable=0;points=[];autosize=1;strokeColor=none;fillColor=none;" parent="1" vertex="1">
          <mxGeometry x="140" y="480" width="65" height="30" as="geometry" />
        </mxCell>
        <mxCell id="gywH0DWfXgigfDdgfyYU-144" style="edgeStyle=orthogonalEdgeStyle;rounded=0;orthogonalLoop=1;jettySize=auto;html=1;" edge="1" parent="1" source="gywH0DWfXgigfDdgfyYU-134" target="gywH0DWfXgigfDdgfyYU-141">
          <mxGeometry relative="1" as="geometry" />
        </mxCell>
        <mxCell id="gywH0DWfXgigfDdgfyYU-134" value="Falling edge on&lt;br&gt;i_SET detected?" style="ellipse;whiteSpace=wrap;html=1;" vertex="1" parent="1">
          <mxGeometry x="517.5" y="485" width="135" height="85" as="geometry" />
        </mxCell>
        <mxCell id="gywH0DWfXgigfDdgfyYU-137" style="edgeStyle=orthogonalEdgeStyle;rounded=0;orthogonalLoop=1;jettySize=auto;html=1;" edge="1" parent="1" source="gywH0DWfXgigfDdgfyYU-135" target="gywH0DWfXgigfDdgfyYU-136">
          <mxGeometry relative="1" as="geometry" />
        </mxCell>
        <mxCell id="gywH0DWfXgigfDdgfyYU-140" style="edgeStyle=orthogonalEdgeStyle;rounded=0;orthogonalLoop=1;jettySize=auto;html=1;" edge="1" parent="1" source="gywH0DWfXgigfDdgfyYU-135" target="gywH0DWfXgigfDdgfyYU-134">
          <mxGeometry relative="1" as="geometry" />
        </mxCell>
        <mxCell id="gywH0DWfXgigfDdgfyYU-135" value="w_CMPLT = CMPLT&amp;nbsp;&lt;br&gt;or&lt;br&gt;i_RESET = &#39;1&#39;?" style="ellipse;whiteSpace=wrap;html=1;" vertex="1" parent="1">
          <mxGeometry x="712.5" y="485" width="135" height="85" as="geometry" />
        </mxCell>
        <mxCell id="gywH0DWfXgigfDdgfyYU-139" style="edgeStyle=orthogonalEdgeStyle;rounded=0;orthogonalLoop=1;jettySize=auto;html=1;entryX=1;entryY=0.5;entryDx=0;entryDy=0;" edge="1" parent="1" target="gywH0DWfXgigfDdgfyYU-135">
          <mxGeometry relative="1" as="geometry">
            <mxPoint x="835" y="650" as="sourcePoint" />
            <mxPoint x="861.25" y="520" as="targetPoint" />
            <Array as="points">
              <mxPoint x="876.25" y="650" />
              <mxPoint x="876.25" y="528" />
            </Array>
          </mxGeometry>
        </mxCell>
        <mxCell id="gywH0DWfXgigfDdgfyYU-136" value="w_RUN &amp;lt;= &#39;0&#39;&lt;br&gt;r_A_REG &amp;lt;= 0x0000&lt;br&gt;r_B_REG &amp;lt;= 0x0000" style="rounded=1;whiteSpace=wrap;html=1;" vertex="1" parent="1">
          <mxGeometry x="710" y="620" width="140" height="60" as="geometry" />
        </mxCell>
        <mxCell id="gywH0DWfXgigfDdgfyYU-138" value="Yes" style="text;html=1;align=center;verticalAlign=middle;whiteSpace=wrap;rounded=0;" vertex="1" parent="1">
          <mxGeometry x="792.5" y="580" width="30" height="30" as="geometry" />
        </mxCell>
        <mxCell id="gywH0DWfXgigfDdgfyYU-141" value="w_RUN &amp;lt;= RUN&lt;br&gt;r_A_REG &amp;lt;= i_DATA_A&lt;br&gt;r_B_REG &amp;lt;= i_DATA_B" style="rounded=1;whiteSpace=wrap;html=1;" vertex="1" parent="1">
          <mxGeometry x="515" y="620" width="140" height="60" as="geometry" />
        </mxCell>
        <mxCell id="gywH0DWfXgigfDdgfyYU-142" value="No" style="text;html=1;align=center;verticalAlign=middle;whiteSpace=wrap;rounded=0;" vertex="1" parent="1">
          <mxGeometry x="667.5" y="495" width="30" height="30" as="geometry" />
        </mxCell>
        <mxCell id="gywH0DWfXgigfDdgfyYU-145" value="" style="curved=1;endArrow=classic;html=1;rounded=0;exitX=1;exitY=0.25;exitDx=0;exitDy=0;entryX=0;entryY=1;entryDx=0;entryDy=0;" edge="1" parent="1" source="gywH0DWfXgigfDdgfyYU-141" target="gywH0DWfXgigfDdgfyYU-135">
          <mxGeometry width="50" height="50" relative="1" as="geometry">
            <mxPoint x="757.5" y="600" as="sourcePoint" />
            <mxPoint x="807.5" y="550" as="targetPoint" />
            <Array as="points">
              <mxPoint x="702.5" y="605" />
            </Array>
          </mxGeometry>
        </mxCell>
        <mxCell id="gywH0DWfXgigfDdgfyYU-147" value="Yes" style="text;html=1;align=center;verticalAlign=middle;whiteSpace=wrap;rounded=0;" vertex="1" parent="1">
          <mxGeometry x="591.25" y="580" width="30" height="30" as="geometry" />
        </mxCell>
        <mxCell id="gywH0DWfXgigfDdgfyYU-148" value="" style="curved=1;endArrow=classic;html=1;rounded=0;exitX=0.5;exitY=0;exitDx=0;exitDy=0;entryX=0.5;entryY=0;entryDx=0;entryDy=0;" edge="1" parent="1" source="gywH0DWfXgigfDdgfyYU-134" target="gywH0DWfXgigfDdgfyYU-135">
          <mxGeometry width="50" height="50" relative="1" as="geometry">
            <mxPoint x="660.25" y="640" as="sourcePoint" />
            <mxPoint x="737.25" y="563" as="targetPoint" />
            <Array as="points">
              <mxPoint x="621.25" y="430" />
              <mxPoint x="741.25" y="440" />
            </Array>
          </mxGeometry>
        </mxCell>
        <mxCell id="gywH0DWfXgigfDdgfyYU-149" value="No" style="text;html=1;align=center;verticalAlign=middle;whiteSpace=wrap;rounded=0;" vertex="1" parent="1">
          <mxGeometry x="621.25" y="450" width="30" height="30" as="geometry" />
        </mxCell>
        <mxCell id="gywH0DWfXgigfDdgfyYU-152" style="edgeStyle=orthogonalEdgeStyle;rounded=0;orthogonalLoop=1;jettySize=auto;html=1;" edge="1" parent="1" source="gywH0DWfXgigfDdgfyYU-150" target="gywH0DWfXgigfDdgfyYU-151">
          <mxGeometry relative="1" as="geometry" />
        </mxCell>
        <mxCell id="gywH0DWfXgigfDdgfyYU-150" value="Wait for 2 clocks&lt;br&gt;(10 ns)" style="rounded=1;whiteSpace=wrap;html=1;" vertex="1" parent="1">
          <mxGeometry x="150" y="605" width="140" height="60" as="geometry" />
        </mxCell>
        <mxCell id="gywH0DWfXgigfDdgfyYU-155" style="edgeStyle=orthogonalEdgeStyle;rounded=0;orthogonalLoop=1;jettySize=auto;html=1;entryX=0.5;entryY=0;entryDx=0;entryDy=0;" edge="1" parent="1" source="gywH0DWfXgigfDdgfyYU-151" target="gywH0DWfXgigfDdgfyYU-154">
          <mxGeometry relative="1" as="geometry" />
        </mxCell>
        <mxCell id="gywH0DWfXgigfDdgfyYU-151" value="o_SET &amp;lt;= SET" style="rounded=1;whiteSpace=wrap;html=1;" vertex="1" parent="1">
          <mxGeometry x="150" y="700" width="140" height="60" as="geometry" />
        </mxCell>
        <mxCell id="gywH0DWfXgigfDdgfyYU-153" value="State S2" style="text;html=1;align=center;verticalAlign=middle;resizable=0;points=[];autosize=1;strokeColor=none;fillColor=none;" vertex="1" parent="1">
          <mxGeometry x="140" y="675" width="65" height="30" as="geometry" />
        </mxCell>
        <mxCell id="gywH0DWfXgigfDdgfyYU-157" style="edgeStyle=orthogonalEdgeStyle;rounded=0;orthogonalLoop=1;jettySize=auto;html=1;" edge="1" parent="1" source="gywH0DWfXgigfDdgfyYU-154" target="gywH0DWfXgigfDdgfyYU-156">
          <mxGeometry relative="1" as="geometry" />
        </mxCell>
        <mxCell id="gywH0DWfXgigfDdgfyYU-154" value="Wait for 10 clocks&lt;br&gt;(50 ns)" style="rounded=1;whiteSpace=wrap;html=1;" vertex="1" parent="1">
          <mxGeometry x="150" y="800" width="140" height="60" as="geometry" />
        </mxCell>
        <mxCell id="gywH0DWfXgigfDdgfyYU-159" style="edgeStyle=orthogonalEdgeStyle;rounded=0;orthogonalLoop=1;jettySize=auto;html=1;" edge="1" parent="1" source="gywH0DWfXgigfDdgfyYU-156" target="gywH0DWfXgigfDdgfyYU-158">
          <mxGeometry relative="1" as="geometry" />
        </mxCell>
        <mxCell id="gywH0DWfXgigfDdgfyYU-156" value="o_SET &amp;lt;= &#39;0&#39;" style="rounded=1;whiteSpace=wrap;html=1;" vertex="1" parent="1">
          <mxGeometry x="326.25" y="800" width="140" height="60" as="geometry" />
        </mxCell>
        <mxCell id="gywH0DWfXgigfDdgfyYU-163" style="edgeStyle=orthogonalEdgeStyle;rounded=0;orthogonalLoop=1;jettySize=auto;html=1;" edge="1" parent="1" source="gywH0DWfXgigfDdgfyYU-158" target="gywH0DWfXgigfDdgfyYU-162">
          <mxGeometry relative="1" as="geometry" />
        </mxCell>
        <mxCell id="gywH0DWfXgigfDdgfyYU-158" value="Wait for 10 clocks&lt;br&gt;(50 ns)" style="rounded=1;whiteSpace=wrap;html=1;" vertex="1" parent="1">
          <mxGeometry x="326.25" y="700" width="140" height="60" as="geometry" />
        </mxCell>
        <mxCell id="gywH0DWfXgigfDdgfyYU-160" value="State S3" style="text;html=1;align=center;verticalAlign=middle;resizable=0;points=[];autosize=1;strokeColor=none;fillColor=none;" vertex="1" parent="1">
          <mxGeometry x="150" y="770" width="65" height="30" as="geometry" />
        </mxCell>
        <mxCell id="gywH0DWfXgigfDdgfyYU-161" value="State S4" style="text;html=1;align=center;verticalAlign=middle;resizable=0;points=[];autosize=1;strokeColor=none;fillColor=none;" vertex="1" parent="1">
          <mxGeometry x="326.25" y="675" width="65" height="30" as="geometry" />
        </mxCell>
        <mxCell id="gywH0DWfXgigfDdgfyYU-166" style="edgeStyle=orthogonalEdgeStyle;rounded=0;orthogonalLoop=1;jettySize=auto;html=1;" edge="1" parent="1" source="gywH0DWfXgigfDdgfyYU-162" target="gywH0DWfXgigfDdgfyYU-165">
          <mxGeometry relative="1" as="geometry" />
        </mxCell>
        <mxCell id="gywH0DWfXgigfDdgfyYU-162" value="o_DATA &amp;lt;= r_B_REG" style="rounded=1;whiteSpace=wrap;html=1;" vertex="1" parent="1">
          <mxGeometry x="326.25" y="605" width="140" height="60" as="geometry" />
        </mxCell>
        <mxCell id="gywH0DWfXgigfDdgfyYU-164" value="State S5" style="text;html=1;align=center;verticalAlign=middle;resizable=0;points=[];autosize=1;strokeColor=none;fillColor=none;" vertex="1" parent="1">
          <mxGeometry x="326.25" y="580" width="65" height="30" as="geometry" />
        </mxCell>
        <mxCell id="gywH0DWfXgigfDdgfyYU-168" style="edgeStyle=orthogonalEdgeStyle;rounded=0;orthogonalLoop=1;jettySize=auto;html=1;" edge="1" parent="1" source="gywH0DWfXgigfDdgfyYU-165" target="gywH0DWfXgigfDdgfyYU-167">
          <mxGeometry relative="1" as="geometry" />
        </mxCell>
        <mxCell id="gywH0DWfXgigfDdgfyYU-165" value="Wait for 2 clocks&lt;br&gt;(10 ns)" style="rounded=1;whiteSpace=wrap;html=1;" vertex="1" parent="1">
          <mxGeometry x="326.25" y="505" width="140" height="60" as="geometry" />
        </mxCell>
        <mxCell id="gywH0DWfXgigfDdgfyYU-171" style="edgeStyle=orthogonalEdgeStyle;rounded=0;orthogonalLoop=1;jettySize=auto;html=1;" edge="1" parent="1" source="gywH0DWfXgigfDdgfyYU-167" target="gywH0DWfXgigfDdgfyYU-170">
          <mxGeometry relative="1" as="geometry" />
        </mxCell>
        <mxCell id="gywH0DWfXgigfDdgfyYU-167" value="o_SET &amp;lt;= SET" style="rounded=1;whiteSpace=wrap;html=1;" vertex="1" parent="1">
          <mxGeometry x="326.25" y="405" width="140" height="60" as="geometry" />
        </mxCell>
        <mxCell id="gywH0DWfXgigfDdgfyYU-169" value="State S6" style="text;html=1;align=center;verticalAlign=middle;resizable=0;points=[];autosize=1;strokeColor=none;fillColor=none;" vertex="1" parent="1">
          <mxGeometry x="326.25" y="380" width="65" height="30" as="geometry" />
        </mxCell>
        <mxCell id="gywH0DWfXgigfDdgfyYU-174" style="edgeStyle=orthogonalEdgeStyle;rounded=0;orthogonalLoop=1;jettySize=auto;html=1;" edge="1" parent="1" source="gywH0DWfXgigfDdgfyYU-170" target="gywH0DWfXgigfDdgfyYU-173">
          <mxGeometry relative="1" as="geometry" />
        </mxCell>
        <mxCell id="gywH0DWfXgigfDdgfyYU-170" value="wait for 10 clocks&lt;br&gt;(50 ns)" style="rounded=1;whiteSpace=wrap;html=1;" vertex="1" parent="1">
          <mxGeometry x="326.25" y="305" width="140" height="60" as="geometry" />
        </mxCell>
        <mxCell id="gywH0DWfXgigfDdgfyYU-172" value="State S7" style="text;html=1;align=center;verticalAlign=middle;resizable=0;points=[];autosize=1;strokeColor=none;fillColor=none;" vertex="1" parent="1">
          <mxGeometry x="326.25" y="277.5" width="65" height="30" as="geometry" />
        </mxCell>
        <mxCell id="gywH0DWfXgigfDdgfyYU-176" style="edgeStyle=orthogonalEdgeStyle;rounded=0;orthogonalLoop=1;jettySize=auto;html=1;" edge="1" parent="1" source="gywH0DWfXgigfDdgfyYU-173" target="gywH0DWfXgigfDdgfyYU-175">
          <mxGeometry relative="1" as="geometry" />
        </mxCell>
        <mxCell id="gywH0DWfXgigfDdgfyYU-173" value="o_SET &amp;lt;= &#39;0&#39;" style="rounded=1;whiteSpace=wrap;html=1;" vertex="1" parent="1">
          <mxGeometry x="326.25" y="210" width="140" height="60" as="geometry" />
        </mxCell>
        <mxCell id="gywH0DWfXgigfDdgfyYU-179" style="edgeStyle=orthogonalEdgeStyle;rounded=0;orthogonalLoop=1;jettySize=auto;html=1;entryX=0.5;entryY=0;entryDx=0;entryDy=0;" edge="1" parent="1" source="gywH0DWfXgigfDdgfyYU-175" target="gywH0DWfXgigfDdgfyYU-178">
          <mxGeometry relative="1" as="geometry" />
        </mxCell>
        <mxCell id="gywH0DWfXgigfDdgfyYU-175" value="wait for 10 clocks&lt;br&gt;(50 ns)" style="rounded=1;whiteSpace=wrap;html=1;" vertex="1" parent="1">
          <mxGeometry x="500" y="210" width="140" height="60" as="geometry" />
        </mxCell>
        <mxCell id="gywH0DWfXgigfDdgfyYU-177" value="State S8" style="text;html=1;align=center;verticalAlign=middle;resizable=0;points=[];autosize=1;strokeColor=none;fillColor=none;" vertex="1" parent="1">
          <mxGeometry x="500" y="185" width="65" height="30" as="geometry" />
        </mxCell>
        <mxCell id="gywH0DWfXgigfDdgfyYU-178" value="w_CMPLT &amp;lt;= CMPLT" style="rounded=1;whiteSpace=wrap;html=1;" vertex="1" parent="1">
          <mxGeometry x="500" y="305" width="140" height="60" as="geometry" />
        </mxCell>
        <mxCell id="gywH0DWfXgigfDdgfyYU-180" value="State SEQ_CMPLT" style="text;html=1;align=center;verticalAlign=middle;resizable=0;points=[];autosize=1;strokeColor=none;fillColor=none;" vertex="1" parent="1">
          <mxGeometry x="507.5" y="365" width="125" height="30" as="geometry" />
        </mxCell>
        <mxCell id="gywH0DWfXgigfDdgfyYU-181" value="" style="curved=1;endArrow=classic;html=1;rounded=0;entryX=1;entryY=0;entryDx=0;entryDy=0;exitX=1;exitY=0.25;exitDx=0;exitDy=0;" edge="1" parent="1" source="gywH0DWfXgigfDdgfyYU-178" target="lawl9e4fDgucuo8IafyU-19">
          <mxGeometry width="50" height="50" relative="1" as="geometry">
            <mxPoint x="690" y="340" as="sourcePoint" />
            <mxPoint x="740" y="290" as="targetPoint" />
            <Array as="points">
              <mxPoint x="720" y="195" />
              <mxPoint x="375" y="95" />
            </Array>
          </mxGeometry>
        </mxCell>
      </root>
    </mxGraphModel>
  </diagram>
</mxfile>
